# xmcd
#
# Track frame offsets: 
#        150
#        37225
#        49606
#        96923
#        158315
#        215075
#        284405
#
# Disc length: 4444 seconds
#
# Revision: 0
# Processed by: cddbd v1.5.2PL0 Copyright (c) Steve Scherf et al.
# Submitted via: ExactAudioCopy v1.0b3
#
DISCID=60115a07
DTITLE=Don Harris - Sugar Cane"s Got The Blues
DYEAR=1971
DGENRE=Blues
TTITLE0=It's Not My Fault
TTITLE1=Moog Solo by Dauner
TTITLE2=Liz Pineapple Wonderful
TTITLE3=Been Down So Long
TTITLE4=Where's Ms Sunshine
TTITLE5=Sugar Cane's Got The Blues
TTITLE6=Song For My Father (New Violin Summit Concert)
EXTD=
EXTT0=
EXTT1=
EXTT2=
EXTT3=
EXTT4=
EXTT5=
EXTT6=
PLAYORDER=
